HIERARCHY
ROOT root
{
	OFFSET	0	13.1	24.9
	CHANNELS 6  Xposition Yposition Zposition Xrotation Yrotation Zrotation
	JOINT spine_1
	{
		OFFSET	0	9.99999	0
		CHANNELS 3  Xrotation Yrotation Zrotation
		JOINT spine_2
		{
			OFFSET	0	112	-10
			CHANNELS 3  Xrotation Yrotation Zrotation
			JOINT spine_3
			{
				OFFSET	0	206.5	19.3
				CHANNELS 3  Xrotation Yrotation Zrotation
				JOINT spine_4
				{
					OFFSET	0	110.4	14.6
					CHANNELS 3  Xrotation Yrotation Zrotation
					JOINT neck_1
					{
						OFFSET	0	71.8	-50.3
						CHANNELS 3  Xrotation Yrotation Zrotation
						JOINT neck_2
						{
							OFFSET	0	86.2	-25.8
							CHANNELS 3  Xrotation Yrotation Zrotation
							JOINT head_ee
							{
								OFFSET	0	179.8	-8.7
								CHANNELS 3  Xrotation Yrotation Zrotation
								End Site
								{
									OFFSET	1	0	0
								}
							}
						}
					}
					JOINT left_clavicle
					{
						OFFSET	-43.2	22.4	-70.8
						CHANNELS 3  Xrotation Yrotation Zrotation
						JOINT left_shoulder
						{
							OFFSET	-93.9	-5.79999	48.7
							CHANNELS 3  Xrotation Yrotation Zrotation
							JOINT left_elbow
							{
								OFFSET	-291.4	-30.8	15.2
								CHANNELS 3  Xrotation Yrotation Zrotation
								JOINT left_lowarm_twist
								{
									OFFSET	-110.7	-3.89999	13.6
									CHANNELS 3  Xrotation Yrotation Zrotation
									JOINT left_hand
									{
										OFFSET	-110.7	-3.89999	13.6
										CHANNELS 3  Xrotation Yrotation Zrotation
										JOINT left_ee
										{
											OFFSET	-80.8	-5.10001	12.1
											CHANNELS 3  Xrotation Yrotation Zrotation
											End Site
											{
												OFFSET	1	0	0
											}
										}
									}
								}
							}
						}
					}
					JOINT right_clavicle
					{
						OFFSET	43.2	22.4	-70.8
						CHANNELS 3  Xrotation Yrotation Zrotation
						JOINT right_shoulder
						{
							OFFSET	93.9	-5.79999	48.7
							CHANNELS 3  Xrotation Yrotation Zrotation
							JOINT right_elbow
							{
								OFFSET	291.4	-30.8	15.2
								CHANNELS 3  Xrotation Yrotation Zrotation
								JOINT right_lowarm_twist
								{
									OFFSET	110.7	-3.89999	13.6
									CHANNELS 3  Xrotation Yrotation Zrotation
									JOINT right_hand
									{
										OFFSET	110.7	-3.89999	13.6
										CHANNELS 3  Xrotation Yrotation Zrotation
										JOINT right_ee
										{
											OFFSET	80.8	-5.10001	12.1
											CHANNELS 3  Xrotation Yrotation Zrotation
											End Site
											{
												OFFSET	1	0	0
											}
										}
									}
								}
							}
						}
					}
				}
			}
		}
	}
	JOINT left_hip
	{
		OFFSET	-82.8	-127.5	0.300001
		CHANNELS 3  Xrotation Yrotation Zrotation
		JOINT left_knee
		{
			OFFSET	-28.2	-396.7	2.2
			CHANNELS 3  Xrotation Yrotation Zrotation
			JOINT left_ankle
			{
				OFFSET	-11.7	-411.3	35.4
				CHANNELS 3  Xrotation Yrotation Zrotation
				JOINT left_toes
				{
					OFFSET	0	-60	-88.6
					CHANNELS 3  Xrotation Yrotation Zrotation
					JOINT left_foot_ee
					{
						OFFSET	-22.5	-16.5	-42.2
						CHANNELS 3  Xrotation Yrotation Zrotation
						End Site
						{
							OFFSET	1	0	0
						}
					}
				}
			}
		}
	}
	JOINT right_hip
	{
		OFFSET	82.8	-127.5	0.300001
		CHANNELS 3  Xrotation Yrotation Zrotation
		JOINT right_knee
		{
			OFFSET	28.2	-396.7	2.2
			CHANNELS 3  Xrotation Yrotation Zrotation
			JOINT right_ankle
			{
				OFFSET	11.7	-411.3	35.4
				CHANNELS 3  Xrotation Yrotation Zrotation
				JOINT right_toes
				{
					OFFSET	0	-60	-88.6
					CHANNELS 3  Xrotation Yrotation Zrotation
					JOINT right_foot_ee
					{
						OFFSET	22.5	-16.5	-42.2
						CHANNELS 3  Xrotation Yrotation Zrotation
						End Site
						{
							OFFSET	1	0	0
						}
					}
				}
			}
		}
	}
}
MOTION
Frames: 6
Frame Time: 0.02
1216.14273933 708.735 -1767.42927995 -15.5254006895 16.0766177943 -4.12576671254 5.62608 0.49694 3.31451 5.63214 0.285143 3.33937 5.64246 -0.0940899 3.35019 5.62706 0.435894 3.32308 -7.34248 6.16856 -2.03622 -7.32932 12.9356 -0.747139 -0.0 0.0 -0.0 -7.93499 23.5241 -8.28608 -11.8174 -53.094 75.4952 0.666724 -18.2772 0.107254 69.2023 -2.65802 -7.88798 -8.82624 21.4552 -50.6122 -0.0 0.0 -0.0 9.83977 27.8122 -18.3038 -4.40707 45.3851 -71.9949 0.428175 11.9755 -0.0449106 -54.1821 4.56937 -4.88356 -9.72527 -28.8571 47.8935 0.0 0.0 0.0 35.9759 27.4703 -0.346952 -64.4387 -2.69787 8.99563 21.4668 27.5 -3.10706 13.1062 -0.0 -0.0 -0.0 0.0 -0.0 22.3069 12.8108 2.53759 3.41898 0.155818 0.501383 35.9976 16.8034 4.85314 -14.6565 0.0 0.0 0.0 0.0 0.0 
1227.87494741 725.579 -1798.06365593 -14.8974036388 13.2528746423 -4.63135170968 5.71144 0.498892 3.44169 5.71798 0.279012 3.46642 5.72791 -0.109376 3.47589 5.71132 0.440617 3.44962 -10.3596 5.5137 -4.25487 -10.3637 13.2399 -2.73263 -0.0 0.0 -0.0 -8.19043 19.8377 -9.97306 -6.95551 -58.2835 81.7228 0.5773 -15.9595 0.0809268 69.6457 -2.70369 -7.92191 -9.77573 26.9076 -51.6658 -0.0 0.0 -0.0 9.9664 27.9197 -18.5736 -1.94351 45.9138 -70.1511 0.452185 12.626 -0.0500257 -53.7843 4.52143 -4.86604 -9.36157 -29.0144 44.4749 0.0 0.0 0.0 43.41 18.588 -0.0681084 -61.0349 -2.31276 8.63846 15.4485 28.9284 -2.31063 7.47865 -0.0 -0.0 -0.0 0.0 -0.0 18.7864 9.61161 2.01338 5.95663 0.290707 0.86717 37.1774 18.6516 5.03559 -16.5204 0.0 0.0 0.0 0.0 0.0 
1220.02869152 728.159 -1824.56978822 -14.9857303294 11.8573939055 -4.18309394472 5.74248 0.56633 3.43225 5.74897 0.346913 3.46129 5.76294 -0.0390708 3.47839 5.74643 0.510435 3.441 -11.0734 5.2786 -5.16937 -11.0683 13.3768 -3.59825 -0.0 0.0 -0.0 -7.9869 18.6311 -10.0721 -5.94071 -60.3508 83.9045 0.559311 -15.4864 0.076052 69.5698 -2.69585 -7.91613 -10.1273 28.8793 -51.7009 -0.0 0.0 -0.0 10.4045 27.3006 -19.6252 -0.703346 45.9133 -69.8535 0.429221 12.0039 -0.0451279 -53.8835 4.53337 -4.87044 -9.47388 -30.0289 43.8847 0.0 0.0 0.0 45.9461 14.0633 0.252111 -58.3036 -2.01962 8.3359 13.9788 27.8071 -2.08605 5.16564 -0.0 -0.0 -0.0 0.0 -0.0 18.0233 7.95413 1.56716 6.48279 0.320701 0.94226 36.4712 18.7319 4.96995 -17.1534 0.0 0.0 0.0 0.0 0.0 
1211.43151411 719.685 -1841.69722201 -15.1967498353 12.8574643383 -3.50900324886 6.08066 0.621467 3.40755 6.08703 0.403508 3.44014 6.10375 0.0402526 3.46346 6.08749 0.586414 3.41375 -9.07488 4.6528 -5.17545 -9.02032 12.2939 -4.00183 -0.0 0.0 -0.0 -7.88239 17.874 -10.1623 -6.65253 -63.5654 84.103 0.546165 -15.1393 0.0725802 69.4062 -2.67898 -7.90362 -10.4665 31.487 -50.1389 -0.0 0.0 -0.0 10.835 26.965 -20.6308 0.601153 45.9607 -69.1347 0.450958 12.5928 -0.0497579 -53.3874 4.47373 -4.84823 -9.84398 -31.0537 45.3549 0.0 0.0 0.0 47.813 10.0456 1.43586 -56.2202 -1.80596 8.09602 11.9963 24.8048 -1.77076 3.45642 -0.0 -0.0 -0.0 0.0 -0.0 16.9344 5.32428 0.306424 4.47505 0.209979 0.654317 37.0536 18.9067 5.03356 -16.0633 0.0 0.0 0.0 0.0 0.0 
1209.31060292 720.499 -1858.01696893 -14.9725630324 12.8631782243 -3.35602764769 6.22948 0.612795 3.39825 6.23581 0.395444 3.4303 6.25176 0.0421814 3.45273 6.2356 0.586627 3.40286 -7.7769 4.25746 -5.0204 -7.70229 11.5005 -4.0836 -0.0 0.0 -0.0 -7.89131 17.1528 -10.4197 -8.5434 -65.8926 82.403 0.535974 -14.8695 0.0699418 69.2261 -2.66046 -7.88981 -10.6512 32.9365 -49.0895 -0.0 0.0 -0.0 10.9714 26.6296 -20.9763 1.29031 45.8083 -68.2831 0.465326 12.9806 -0.0529378 -53.0416 4.43225 -4.83245 -10.0772 -31.6135 46.4069 0.0 0.0 0.0 49.5265 6.54595 1.06263 -53.9614 -1.5844 7.82748 10.5322 22.5905 -1.54503 2.20518 -0.0 -0.0 -0.0 0.0 -0.0 15.7742 3.5598 -0.0605416 2.78051 0.124448 0.408458 37.5709 19.0606 5.08944 -15.2619 0.0 0.0 0.0 0.0 0.0 
1193.89266166 719.987 -1876.85972487 -15.483199569 14.3978475823 -2.37758818787 6.29884 0.509609 3.41592 6.30529 0.291344 3.44139 6.31487 -0.0588892 3.45318 6.29856 0.486891 3.41923 -7.82555 4.08714 -4.79162 -7.75844 11.0191 -3.88647 -0.0 0.0 -0.0 -7.40604 16.5156 -9.83207 -8.99439 -67.8693 81.4378 0.528832 -14.68 0.0681204 68.9701 -2.63421 -7.87007 -10.4719 32.3193 -48.6281 -0.0 0.0 -0.0 11.0879 26.3955 -21.2658 1.79371 45.7258 -67.6804 0.516325 14.3473 -0.0649862 -52.8078 4.40428 -4.82164 -10.1889 -31.5491 47.4895 0.0 0.0 0.0 52.1675 3.61488 -0.870438 -50.5301 -1.26865 7.4036 9.50172 20.5818 -1.38657 1.32561 -0.0 -0.0 -0.0 0.0 -0.0 14.971 2.33263 -0.275213 1.59067 0.0687633 0.234395 37.9343 19.1651 5.12821 -14.834 0.0 0.0 0.0 0.0 0.0 
